<svg width="40" height="40" viewBox="0 0 40 40" fill="none" xmlns="http://www.w3.org/2000/svg">
<g clip-path="url(#clip0)">
<path d="M19.9999 0C12.4749 0 6.35315 6.12187 6.35315 13.6467C6.35315 16.0337 7.05801 18.7979 8.44813 21.8624C9.54783 24.2869 11.0787 26.9096 12.9982 29.6579C16.2573 34.3243 19.5638 37.7958 19.5968 37.8303C19.8133 38.0566 20.1865 38.0566 20.403 37.8303C20.436 37.7958 23.7426 34.3243 27.0017 29.6579C28.9211 26.9095 30.452 24.2869 31.5517 21.8624C32.9419 18.7979 33.6467 16.0337 33.6467 13.6467C33.6466 6.12187 27.5247 0 19.9999 0ZM26.0958 29.0065C23.5477 32.6568 20.9709 35.5641 19.9998 36.6252C19.0288 35.5641 16.452 32.6569 13.9037 29.0065C9.69389 22.9758 7.46859 17.6645 7.46859 13.6467C7.46859 6.737 13.0901 1.11551 19.9998 1.11551C26.9095 1.11551 32.531 6.737 32.531 13.6467C32.531 17.6644 30.3057 22.9758 26.0958 29.0065Z" fill="#859FD9"/>
<path d="M26.7323 6.14897C26.5031 5.94317 26.1504 5.96194 25.9446 6.19113C25.7387 6.42024 25.7576 6.77293 25.9867 6.97874C27.8772 8.67717 28.9615 11.1078 28.9615 13.6472C28.9615 18.5885 24.9414 22.6086 20 22.6086C15.0586 22.6086 11.0385 18.5886 11.0385 13.6472C11.0385 8.70589 15.0586 4.68582 20 4.68582C21.3873 4.68582 22.7169 4.99405 23.9521 5.60191C24.2283 5.73802 24.5627 5.62417 24.6988 5.34778C24.8348 5.07139 24.721 4.73703 24.4446 4.60106C23.0548 3.91706 21.5595 3.57031 19.9999 3.57031C14.4434 3.57031 9.92291 8.09084 9.92291 13.6473C9.92291 19.2038 14.4434 23.7243 19.9999 23.7243C25.5564 23.7243 30.0769 19.2038 30.0769 13.6473C30.077 10.7917 28.8579 8.0587 26.7323 6.14897Z" fill="#859FD9"/>
<path d="M25.0552 10.2002L20.2956 7.2254C20.1147 7.11237 19.8852 7.11237 19.7044 7.2254L14.9448 10.2002C14.7818 10.3021 14.6827 10.4809 14.6827 10.6732V18.4075C14.6827 18.7155 14.9324 18.9653 15.2404 18.9653H18.2152C18.5233 18.9653 18.773 18.7155 18.773 18.4075V14.2057H21.2272V18.4075C21.2272 18.7155 21.4768 18.9653 21.7849 18.9653H24.7597C25.0678 18.9653 25.3174 18.7155 25.3174 18.4075V10.6732C25.3174 10.4809 25.2183 10.3021 25.0552 10.2002ZM24.2018 17.8498H22.3425V13.6479C22.3425 13.3399 22.0928 13.0902 21.7848 13.0902H18.2151C17.907 13.0902 17.6573 13.3399 17.6573 13.6479V17.8498H15.798V10.9823L19.9999 8.35613L24.2017 10.9823V17.8498H24.2018Z" fill="#859FD9"/>
<rect x="26" y="40" width="12" height="1.2" rx="0.6" transform="rotate(-180 26 40)" fill="#859FD9"/>
</g>
<defs>
<clipPath id="clip0">
<rect width="40" height="40" fill="white"/>
</clipPath>
</defs>
</svg>
