<svg width="39" height="37" viewBox="0 0 39 37" fill="none" xmlns="http://www.w3.org/2000/svg">
<path d="M32.5564 35.9999H5.88988C5.42797 36.0043 4.98112 35.8357 4.63724 35.5273C4.29335 35.2188 4.0773 34.7929 4.03154 34.3333V16.8334L1.00656 2.00844C0.99106 1.88078 1.00311 1.7513 1.04188 1.62868C1.08065 1.50606 1.14525 1.39316 1.23132 1.29762C1.31739 1.20207 1.42292 1.12608 1.54084 1.07476C1.65876 1.02345 1.7863 0.997995 1.91488 1.00012H36.5314C36.6512 1.00357 36.7686 1.03478 36.8744 1.09129C36.9801 1.14781 37.0713 1.22809 37.1408 1.32582C37.2103 1.42355 37.2561 1.53607 37.2747 1.65452C37.2933 1.77297 37.2842 1.89412 37.248 2.00844L34.0314 16.8334V34.3333C34.0521 34.5412 34.0296 34.7512 33.9654 34.95C33.9011 35.1489 33.7964 35.3323 33.6579 35.4888C33.5194 35.6453 33.3501 35.7715 33.1606 35.8594C32.971 35.9474 32.7653 35.9952 32.5564 35.9999V35.9999Z" stroke="#859FD9" stroke-width="1.57142" stroke-miterlimit="10"/>
<path d="M4.03174 16.8333H34.0316" stroke="#859FD9" stroke-width="1.57142" stroke-miterlimit="10"/>
<path d="M11.5317 27.6668C12.1948 27.6668 12.8306 27.4034 13.2995 26.9346C13.7683 26.4657 14.0317 25.8298 14.0317 25.1668V24.3335C14.0317 23.6704 13.7683 23.0346 13.2995 22.5657C12.8306 22.0969 12.1948 21.8335 11.5317 21.8335C10.8687 21.8335 10.2328 22.0969 9.76398 22.5657C9.29514 23.0346 9.03174 23.6704 9.03174 24.3335V25.1668C9.03174 25.8298 9.29514 26.4657 9.76398 26.9346C10.2328 27.4034 10.8687 27.6668 11.5317 27.6668Z" stroke="#859FD9" stroke-width="1.57142" stroke-miterlimit="10"/>
<path d="M15.6985 31.8331V30.1665C15.6985 28.3665 12.9485 27.6665 11.5319 27.6665C10.1152 27.6665 7.36523 28.3665 7.36523 30.1665V31.8331" stroke="#859FD9" stroke-width="1.57142" stroke-miterlimit="10" stroke-linecap="round"/>
<path d="M19.2588 21.8335H23.4254" stroke="#859FD9" stroke-width="1.57142" stroke-miterlimit="10" stroke-linecap="round"/>
<path d="M19.2588 24.3333H25.0921" stroke="#859FD9" stroke-width="1.57142" stroke-miterlimit="10" stroke-linecap="round"/>
<path d="M26.9653 24.3333H31.2078" stroke="#859FD9" stroke-width="1.57142" stroke-miterlimit="10" stroke-linecap="round"/>
<path d="M13.1982 12.6667H24.0315" stroke="#859FD9" stroke-width="1.57142" stroke-miterlimit="10" stroke-linecap="round"/>
<path d="M19.2588 28.5H22.5921" stroke="#859FD9" stroke-width="1.57142" stroke-miterlimit="10" stroke-linecap="round"/>
<path d="M19.2588 31H25.0921" stroke="#859FD9" stroke-width="1.57142" stroke-miterlimit="10" stroke-linecap="round"/>
<path d="M26.9653 30.697H31.2078" stroke="#859FD9" stroke-width="1.57142" stroke-miterlimit="10" stroke-linecap="round"/>
</svg>
